<svg xmlns="http://www.w3.org/2000/svg" viewBox="0 0 32 32">
  <!-- coral background -->
  <rect rx="5.44" fill="#E8522A"/>
  <!-- white card -->
  <rect x="3.20" y="12.16" width="25.60" height="17.28" rx="1.92" fill="#ffffff"/>
  <!-- dark header -->
  <rect x="3.20" y="12.16" width="25.60" height="4.32" rx="1.92" fill="#C94420"/>
  <rect x="3.20" y="14.32" width="25.60" height="2.16" fill="#C94420"/>
  <!-- grid cells -->
  <rect x="4.61" y="17.89" width="6.66" height="2.44" rx="1.46" fill="#E8522A" opacity="0.28"/>
  <rect x="12.67" y="17.89" width="6.66" height="2.44" rx="1.46" fill="#E8522A" opacity="0.28"/>
  <rect x="20.74" y="17.89" width="6.66" height="2.44" rx="1.46" fill="#E8522A" opacity="0.90"/>
  <rect x="4.61" y="21.74" width="6.66" height="2.44" rx="1.46" fill="#E8522A" opacity="0.90"/>
  <rect x="12.67" y="21.74" width="6.66" height="2.44" rx="1.46" fill="#E8522A" opacity="0.28"/>
  <rect x="20.74" y="21.74" width="6.66" height="2.44" rx="1.46" fill="#E8522A" opacity="0.28"/>
  <rect x="4.61" y="25.59" width="6.66" height="2.44" rx="1.46" fill="#E8522A" opacity="0.28"/>
  <rect x="12.67" y="25.59" width="6.66" height="2.44" rx="1.46" fill="#E8522A" opacity="0.90"/>
  <rect x="20.74" y="25.59" width="6.66" height="2.44" rx="1.46" fill="#E8522A" opacity="0.28"/>
  
  <!-- roof ridge ON TOP of everything -->
  <polyline
    points="1.60,12.80 16.00,2.56 30.40,12.80"
    fill="none" stroke="#ffffff" stroke-width="2.24"
    stroke-linejoin="round" stroke-linecap="round"/>
</svg>